<svg width="200" height="200" viewBox="0 0 200 200" fill="none" xmlns="http://www.w3.org/2000/svg">
<rect width="200" height="200" fill="#E4E7EA"/>
<path d="M71 82.1429C71 80.2485 71.7525 78.4316 73.0921 77.0921C74.4316 75.7525 76.2485 75 78.1429 75H121C122.894 75 124.711 75.7525 126.051 77.0921C127.39 78.4316 128.143 80.2485 128.143 82.1429V117.857C128.143 119.752 127.39 121.568 126.051 122.908C124.711 124.247 122.894 125 121 125H78.1429C76.2485 125 74.4316 124.247 73.0921 122.908C71.7525 121.568 71 119.752 71 117.857V82.1429V82.1429ZM74.5714 114.286V117.857C74.5714 118.804 74.9477 119.713 75.6175 120.383C76.2872 121.052 77.1957 121.429 78.1429 121.429H121C121.947 121.429 122.856 121.052 123.525 120.383C124.195 119.713 124.571 118.804 124.571 117.857V105.357L111.082 98.4036C110.747 98.2358 110.368 98.1776 109.998 98.2372C109.628 98.2968 109.287 98.4712 109.021 98.7357L95.7714 111.986L86.2714 105.657C85.9284 105.429 85.517 105.326 85.1069 105.366C84.6968 105.407 84.3133 105.588 84.0214 105.879L74.5714 114.286ZM92.4286 91.0714C92.4286 89.6506 91.8642 88.288 90.8595 87.2834C89.8548 86.2787 88.4922 85.7143 87.0714 85.7143C85.6506 85.7143 84.288 86.2787 83.2834 87.2834C82.2787 88.288 81.7143 89.6506 81.7143 91.0714C81.7143 92.4922 82.2787 93.8548 83.2834 94.8595C84.288 95.8642 85.6506 96.4286 87.0714 96.4286C88.4922 96.4286 89.8548 95.8642 90.8595 94.8595C91.8642 93.8548 92.4286 92.4922 92.4286 91.0714Z" fill="#9EADBA"/>
</svg>
