<svg width="374" height="374" viewBox="0 0 374 374" fill="none" xmlns="http://www.w3.org/2000/svg">
<path d="M186.289 363.565C283.622 363.565 362.526 318.01 362.526 261.815C362.526 205.62 283.622 160.064 186.289 160.064C88.9568 160.064 10.0531 205.62 10.0531 261.815C10.0531 318.01 88.9568 363.565 186.289 363.565Z" fill="#F0F0F0"/>
<path d="M287.501 297.121C275.945 290.448 275.945 279.632 287.501 272.96C299.058 266.288 317.795 266.288 329.352 272.96C340.908 279.632 340.908 290.448 329.352 297.121C317.795 303.793 299.058 303.793 287.501 297.121Z" fill="#E0E0E0"/>
<path d="M52.4498 298.048L22.051 280.5C20.3381 279.513 20.3381 277.904 22.051 276.917L198.871 174.83C199.832 174.343 200.894 174.089 201.971 174.089C203.049 174.089 204.111 174.343 205.072 174.83L235.478 192.378C237.191 193.366 237.191 194.974 235.478 195.961L58.6582 298.048C57.6959 298.535 56.6325 298.789 55.554 298.789C54.4754 298.789 53.4121 298.535 52.4498 298.048Z" fill="#E0E0E0"/>
<path d="M161.718 266.767L187.853 251.657C190.545 250.101 191.892 248.067 191.892 246.025C191.892 243.983 191.892 242.389 191.892 242.389L164.784 227.1C164.027 226.611 163.397 225.949 162.944 225.169C162.492 224.389 162.23 223.513 162.181 222.612V190.381L116.553 216.755V248.972C116.606 249.871 116.869 250.746 117.321 251.525C117.773 252.305 118.402 252.967 119.156 253.46L142.225 266.744C147.595 269.878 156.332 269.878 161.718 266.767Z" fill="#407BFF"/>
<g opacity="0.6">
<path d="M161.718 266.767L187.853 251.657C190.545 250.101 191.892 248.067 191.892 246.025C191.892 243.983 191.892 242.389 191.892 242.389L164.784 227.1C164.027 226.611 163.397 225.949 162.944 225.169C162.492 224.389 162.23 223.513 162.181 222.612V190.381L116.553 216.755V248.972C116.606 249.871 116.869 250.746 117.321 251.525C117.773 252.305 118.402 252.967 119.156 253.46L142.225 266.744C147.595 269.878 156.332 269.878 161.718 266.767Z" fill="black"/>
</g>
<path opacity="0.3" d="M127.497 254.679V258.299L119.134 253.475C118.379 252.983 117.751 252.32 117.3 251.541C116.849 250.761 116.588 249.886 116.538 248.987V216.755L125.23 211.736C125.41 213.943 125.604 216.224 125.791 218.468L119.68 221.984V247.154C119.728 248.055 119.99 248.931 120.442 249.711C120.895 250.491 121.525 251.153 122.283 251.642L127.497 254.679Z" fill="black"/>
<path d="M119.68 247.162C119.731 248.061 119.994 248.936 120.446 249.716C120.898 250.496 121.527 251.158 122.283 251.65L142.195 263.124C147.58 266.228 156.317 266.236 161.71 263.124L187.89 248.014C193.283 244.903 193.283 239.861 187.89 236.749L167.963 225.275C167.21 224.782 166.582 224.12 166.131 223.34C165.68 222.561 165.419 221.686 165.368 220.787V195.609L119.74 221.984L119.68 247.162Z" fill="#407BFF"/>
<path opacity="0.3" d="M119.68 247.162C119.731 248.061 119.994 248.936 120.446 249.716C120.898 250.496 121.527 251.158 122.283 251.65L142.195 263.124C147.58 266.228 156.317 266.236 161.71 263.124L187.89 248.014C193.283 244.903 193.283 239.861 187.89 236.749L167.963 225.275C167.21 224.782 166.582 224.12 166.131 223.34C165.68 222.561 165.419 221.686 165.368 220.787V195.609L119.74 221.984L119.68 247.162Z" fill="black"/>
<path opacity="0.5" d="M173.237 228.349L167.933 225.29C167.18 224.797 166.552 224.135 166.101 223.355C165.651 222.576 165.389 221.701 165.338 220.802V195.609L119.71 221.984V247.162C119.761 248.061 120.024 248.936 120.476 249.716C120.928 250.496 121.557 251.158 122.313 251.65L127.549 254.642L173.237 228.349Z" fill="black"/>
<path d="M191.899 242.396V246.032C191.899 248.074 190.545 250.101 187.86 251.664L161.68 266.766C158.815 268.296 155.615 269.09 152.368 269.078V265.457C155.615 265.47 158.815 264.675 161.68 263.146L187.86 248.029C190.545 246.481 191.899 244.439 191.899 242.396Z" fill="#407BFF"/>
<path opacity="0.5" d="M191.899 242.396V246.032C191.899 248.074 190.545 250.101 187.86 251.664L161.68 266.766C158.815 268.296 155.615 269.09 152.368 269.078V265.457C155.615 265.47 158.815 264.675 161.68 263.146L187.86 248.029C190.545 246.481 191.899 244.439 191.899 242.396Z" fill="black"/>
<path d="M46.376 278.45C47.3624 278.927 48.4469 279.165 49.5422 279.145C50.6374 279.126 51.7128 278.849 52.6816 278.338L229.21 176.423C230.156 175.806 230.944 174.974 231.509 173.995C232.075 173.017 232.401 171.919 232.463 170.791V27.9825C232.43 26.8847 232.137 25.8104 231.609 24.8472C231.081 23.884 230.334 23.0591 229.427 22.4398C228.441 21.9628 227.357 21.7251 226.263 21.7459C225.169 21.7667 224.095 22.0454 223.128 22.5595L46.6004 124.504C45.6571 125.126 44.8741 125.961 44.3151 126.942C43.7562 127.924 43.4371 129.024 43.384 130.152V272.937C43.4173 274.026 43.7054 275.092 44.225 276.049C44.7446 277.007 45.4812 277.829 46.376 278.45Z" fill="#407BFF"/>
<path d="M52.7041 278.331L229.232 176.416C230.18 175.8 230.969 174.968 231.534 173.99C232.1 173.011 232.426 171.912 232.486 170.783V27.9827C232.486 25.9107 231.027 25.0655 229.232 26.1052L52.7041 128.02C51.7571 128.637 50.969 129.469 50.4036 130.447C49.8383 131.426 49.5116 132.524 49.4503 133.653V276.453C49.4503 278.525 50.9089 279.371 52.7041 278.331Z" fill="#407BFF"/>
<path opacity="0.5" d="M52.7041 278.331L229.232 176.416C230.18 175.8 230.969 174.968 231.534 173.99C232.1 173.011 232.426 171.912 232.486 170.783V27.9827C232.486 25.9107 231.027 25.0655 229.232 26.1052L52.7041 128.02C51.7571 128.637 50.969 129.469 50.4036 130.447C49.8383 131.426 49.5116 132.524 49.4503 133.653V276.453C49.4503 278.525 50.9089 279.371 52.7041 278.331Z" fill="black"/>
<path d="M52.2253 282.041C51.2996 282.445 50.2973 282.643 49.2875 282.623C48.2777 282.602 47.2844 282.363 46.376 281.921C45.4793 281.298 44.7413 280.474 44.2216 279.514C43.7019 278.553 43.415 277.485 43.384 276.393V263.393L49.4802 266.924V279.924C49.4428 281.816 50.6471 282.676 52.2253 282.041Z" fill="#407BFF"/>
<path opacity="0.5" d="M52.2253 282.041C51.2996 282.445 50.2973 282.643 49.2875 282.623C48.2777 282.602 47.2844 282.363 46.376 281.921C45.4793 281.298 44.7413 280.474 44.2216 279.514C43.7019 278.553 43.415 277.485 43.384 276.393V263.393L49.4802 266.924V279.924C49.4428 281.816 50.6471 282.676 52.2253 282.041Z" fill="black"/>
<path d="M49.4427 266.924V279.924C49.4427 281.996 50.9387 282.833 52.6965 281.801L229.225 179.886C230.167 179.272 230.953 178.445 231.518 177.472C232.083 176.499 232.412 175.407 232.478 174.284V161.224L49.4427 266.924Z" fill="#407BFF"/>
<path opacity="0.3" d="M49.4503 266.894V279.924C49.4503 281.996 50.9463 282.833 52.7041 281.801L229.232 179.886C230.173 179.271 230.957 178.444 231.521 177.471C232.085 176.498 232.413 175.406 232.478 174.284V161.224L49.4503 266.894Z" fill="black"/>
<path d="M55.5464 250.58V135.679C55.5813 135.002 55.7756 134.343 56.1136 133.756C56.4515 133.168 56.9236 132.669 57.4912 132.298L224.4 35.9036C225.477 35.2827 226.352 35.7839 226.352 37.0256V151.986C226.316 152.663 226.12 153.322 225.781 153.91C225.442 154.497 224.969 154.997 224.4 155.367L57.4987 251.739C56.4216 252.36 55.5464 251.851 55.5464 250.58Z" fill="#407BFF"/>
<path d="M55.5464 250.58V135.679C55.5813 135.002 55.7756 134.343 56.1136 133.756C56.4515 133.168 56.9236 132.669 57.4912 132.298L224.4 35.9036C225.477 35.2827 226.352 35.7839 226.352 37.0256V151.986C226.316 152.663 226.12 153.322 225.781 153.91C225.442 154.497 224.969 154.997 224.4 155.367L57.4987 251.739C56.4216 252.36 55.5464 251.851 55.5464 250.58Z" fill="#263238"/>
<path d="M140.961 218.214C140.072 218.792 139.333 219.571 138.802 220.489C138.272 221.407 137.966 222.437 137.909 223.495C137.909 225.44 139.278 226.233 140.961 225.26C141.85 224.682 142.59 223.901 143.12 222.982C143.651 222.063 143.956 221.031 144.012 219.972C144.012 218.027 142.644 217.242 140.961 218.214Z" fill="#407BFF"/>
<path opacity="0.7" d="M50.4077 130.436C49.828 131.411 49.4966 132.513 49.4428 133.645V266.924L43.384 263.393V130.152C43.4232 129.016 43.7528 127.908 44.3414 126.936L50.4077 130.436Z" fill="black"/>
<path opacity="0.3" d="M232.448 27.4439C232.217 25.7683 230.863 25.1999 229.225 26.1049L52.6965 128.02C51.7394 128.619 50.9494 129.45 50.4002 130.436L44.2965 126.913C44.8494 125.927 45.6417 125.096 46.6003 124.497L223.128 22.5893C224.096 22.0752 225.171 21.7965 226.267 21.7757C227.362 21.7549 228.448 21.9926 229.434 22.4697C230.263 23.0347 230.962 23.7711 231.482 24.6293C232.002 25.4875 232.331 26.4473 232.448 27.4439Z" fill="black"/>
<path d="M241.971 45.0222C241.708 44.8906 241.415 44.8329 241.123 44.8553C240.83 44.8777 240.549 44.9793 240.31 45.1493L73.7454 141.372C73.0881 141.807 72.5425 142.39 72.1526 143.075C71.7628 143.76 71.5397 144.527 71.5014 145.314V259.511C71.478 259.897 71.5546 260.282 71.7236 260.629C71.8927 260.976 72.1485 261.274 72.4663 261.493C72.8328 261.695 74.7926 262.832 75.376 263.146C75.5824 263.252 75.8131 263.3 76.0443 263.287C76.2756 263.274 76.4993 263.2 76.6925 263.072L243.22 166.849C243.877 166.414 244.423 165.831 244.812 165.146C245.202 164.461 245.425 163.694 245.464 162.907V48.1189C245.497 47.8288 245.449 47.5352 245.325 47.2709C245.201 47.0067 245.005 46.7823 244.761 46.6229C244.387 46.376 242.389 45.269 241.971 45.0222Z" fill="#407BFF"/>
<path d="M76.6551 142.988L243.227 46.8025C244.484 46.0545 245.471 46.6678 245.471 48.119V162.907C245.433 163.694 245.21 164.461 244.82 165.146C244.43 165.831 243.884 166.414 243.227 166.849L76.6551 263.072C75.3984 263.82 74.4111 262.615 74.4111 261.164V146.93C74.4506 146.143 74.6742 145.376 75.0639 144.692C75.4537 144.007 75.9987 143.423 76.6551 142.988Z" fill="#FAFAFA"/>
<path d="M244.244 47.2363C244.686 47.2363 244.753 47.7898 244.753 48.1189V162.907C244.713 163.566 244.519 164.207 244.188 164.778C243.857 165.349 243.398 165.836 242.846 166.198L76.296 262.421C76.1842 262.493 76.0551 262.535 75.922 262.541C75.5031 262.541 75.174 261.897 75.174 261.164V146.93C75.2101 146.271 75.3976 145.629 75.7219 145.054C76.0462 144.48 76.4987 143.988 77.044 143.616L243.601 47.4457C243.794 47.3214 244.016 47.2492 244.244 47.2363ZM244.244 46.4883C243.884 46.5036 243.534 46.6118 243.227 46.8024L76.6551 142.988C75.9987 143.423 75.4537 144.007 75.0639 144.692C74.6742 145.376 74.4506 146.143 74.4111 146.93V261.164C74.4111 262.316 75.0544 263.289 75.9071 263.289C76.1712 263.284 76.4293 263.209 76.6551 263.072L243.22 166.849C243.877 166.414 244.423 165.831 244.812 165.146C245.202 164.461 245.425 163.694 245.464 162.907V48.1189C245.464 47.0867 244.955 46.4883 244.207 46.4883H244.244Z" fill="#E0E0E0"/>
<path d="M72.4214 261.493C72.6682 261.62 74.441 262.63 75.2189 263.079C74.9396 262.847 74.7183 262.553 74.5729 262.221C74.4274 261.888 74.3617 261.526 74.3811 261.164V154.387L71.4639 152.682V259.511C71.4398 259.896 71.5152 260.28 71.6829 260.628C71.8506 260.975 72.1049 261.273 72.4214 261.493Z" fill="#F0F0F0"/>
<path d="M245.501 48.0964C245.501 46.6602 244.476 46.0768 243.257 46.8024L76.6551 142.988C75.9987 143.423 75.4537 144.007 75.0639 144.692C74.6742 145.376 74.4506 146.143 74.4111 146.93V154.41L245.501 55.5764V48.0964Z" fill="#407BFF"/>
<g opacity="0.4">
<path d="M243.227 46.8024L76.655 142.98C75.9865 143.402 75.4358 143.986 75.0543 144.678L72.1595 142.995C72.5404 142.327 73.0864 141.768 73.7453 141.372L240.31 45.1493C240.548 44.9782 240.829 44.8752 241.122 44.8515C241.414 44.8278 241.708 44.8842 241.971 45.0147C242.374 45.269 244.267 46.3387 244.753 46.6005C244.502 46.5072 244.231 46.4768 243.965 46.512C243.699 46.5472 243.446 46.6469 243.227 46.8024Z" fill="white"/>
</g>
<path opacity="0.15" d="M71.4639 152.689V145.277C71.4947 144.469 71.7343 143.683 72.1596 142.995L75.0618 144.671C74.6427 145.346 74.408 146.12 74.3811 146.915V154.395L71.4639 152.689Z" fill="black"/>
<path d="M210.375 134.206L110.614 191.802C110.129 192.117 109.725 192.542 109.435 193.042C109.145 193.543 108.978 194.105 108.946 194.682V223.286C108.978 223.863 109.145 224.425 109.435 224.925C109.725 225.426 110.129 225.851 110.614 226.165L113.524 227.841C114.041 228.102 114.613 228.239 115.192 228.239C115.772 228.239 116.343 228.102 116.86 227.841L216.606 170.245C217.091 169.928 217.495 169.502 217.785 169C218.075 168.499 218.242 167.936 218.274 167.358V138.747C218.242 138.169 218.075 137.607 217.785 137.107C217.495 136.606 217.091 136.182 216.606 135.867L213.689 134.191C213.174 133.934 212.606 133.801 212.03 133.804C211.454 133.806 210.888 133.944 210.375 134.206Z" fill="#407BFF"/>
<path opacity="0.5" d="M218.274 138.492C218.154 137.632 217.459 137.318 216.621 137.804L116.86 195.4C116.368 195.706 115.964 196.134 115.686 196.642L109.44 193.036C109.72 192.536 110.121 192.114 110.607 191.81L210.375 134.214C210.891 133.952 211.461 133.815 212.039 133.815C212.618 133.815 213.188 133.952 213.704 134.214L216.621 135.889C217.066 136.181 217.443 136.564 217.728 137.012C218.013 137.461 218.199 137.966 218.274 138.492Z" fill="white"/>
<path d="M116.576 227.983C116.087 228.176 115.564 228.263 115.039 228.24C114.515 228.217 114.001 228.083 113.531 227.849L110.614 226.173C110.13 225.857 109.727 225.432 109.437 224.932C109.147 224.432 108.979 223.87 108.946 223.293V194.69C108.969 194.106 109.139 193.537 109.44 193.037L115.686 196.642C115.382 197.136 115.212 197.701 115.192 198.28V226.891C115.192 227.841 115.79 228.282 116.576 227.983Z" fill="#263238"/>
<path d="M116.86 195.4L216.621 137.804C217.541 137.273 218.289 137.699 218.289 138.761V167.372C218.257 167.951 218.09 168.514 217.8 169.015C217.51 169.517 217.106 169.943 216.621 170.26L116.875 227.856C115.955 228.387 115.207 227.953 115.207 226.891V198.287C115.237 197.71 115.402 197.148 115.689 196.647C115.977 196.145 116.378 195.718 116.86 195.4Z" fill="#407BFF"/>
<path d="M183.926 149.48L110.622 191.81C110.136 192.114 109.735 192.536 109.455 193.037L115.701 196.642C115.978 196.134 116.383 195.706 116.875 195.4L190.179 153.078L183.926 149.48Z" fill="#455A64"/>
<path d="M190.164 153.078L116.86 195.4C116.375 195.716 115.971 196.143 115.681 196.644C115.391 197.146 115.224 197.709 115.192 198.287V226.883C115.192 227.945 115.94 228.379 116.86 227.848L190.164 185.526V153.078Z" fill="#37474F"/>
<path d="M133.765 191.915L171.591 170.08C173.154 169.175 174.426 169.819 174.426 171.517C174.356 172.47 174.062 173.394 173.568 174.213C173.075 175.032 172.395 175.722 171.584 176.229L133.765 198.071C132.202 198.976 130.922 198.332 130.922 196.634C130.993 195.68 131.287 194.755 131.781 193.936C132.275 193.116 132.954 192.423 133.765 191.915Z" fill="#407BFF"/>
<path d="M141.514 199.147C141.521 199.139 141.53 199.133 141.539 199.129C141.549 199.124 141.56 199.122 141.57 199.122C141.581 199.122 141.591 199.124 141.601 199.129C141.611 199.133 141.619 199.139 141.626 199.147C141.66 199.198 141.676 199.259 141.671 199.319V203.576C141.672 203.987 141.637 204.397 141.566 204.802C141.505 205.172 141.399 205.534 141.252 205.879C141.118 206.196 140.942 206.493 140.729 206.762C140.518 207.012 140.265 207.222 139.981 207.383C139.758 207.528 139.498 207.606 139.233 207.607C139.131 207.599 139.032 207.571 138.942 207.523C138.852 207.475 138.773 207.41 138.709 207.331C138.545 207.111 138.437 206.854 138.395 206.583C138.323 206.221 138.291 205.852 138.298 205.483V201.219C138.297 201.145 138.313 201.071 138.343 201.002C138.361 200.941 138.401 200.888 138.455 200.853L138.926 200.576C138.941 200.562 138.961 200.554 138.982 200.554C139.003 200.554 139.023 200.562 139.038 200.576C139.073 200.626 139.089 200.687 139.083 200.748V204.952C139.077 205.183 139.1 205.414 139.15 205.64C139.171 205.784 139.233 205.92 139.33 206.029C139.364 206.069 139.406 206.101 139.454 206.122C139.502 206.142 139.554 206.152 139.607 206.149C139.735 206.14 139.858 206.099 139.966 206.029C140.099 205.949 140.22 205.851 140.325 205.737C140.442 205.603 140.537 205.452 140.609 205.288C140.693 205.097 140.756 204.896 140.796 204.69C140.84 204.443 140.86 204.193 140.856 203.942V199.731C140.858 199.656 140.876 199.582 140.908 199.514C140.927 199.452 140.966 199.399 141.02 199.364L141.514 199.147Z" fill="#FAFAFA"/>
<path d="M144.446 203.172C144.45 203.117 144.437 203.062 144.409 203.015C144.391 202.995 144.369 202.98 144.344 202.971C144.319 202.962 144.293 202.959 144.267 202.962C144.175 202.95 144.082 202.95 143.99 202.962L143.556 203.045C143.416 203.08 143.27 203.08 143.13 203.045C143.02 203.009 142.925 202.938 142.861 202.843C142.787 202.721 142.739 202.587 142.718 202.446C142.645 202.046 142.645 201.635 142.718 201.234C142.775 201.005 142.855 200.782 142.958 200.569C143.06 200.356 143.186 200.156 143.332 199.97C143.473 199.794 143.646 199.644 143.84 199.529C143.998 199.433 144.174 199.372 144.357 199.35C144.489 199.336 144.623 199.365 144.738 199.432C144.848 199.499 144.934 199.598 144.985 199.716C145.045 199.856 145.078 200.005 145.082 200.157C145.09 200.233 145.074 200.308 145.037 200.374C145.019 200.436 144.979 200.489 144.925 200.524L144.476 200.786C144.456 200.798 144.433 200.804 144.409 200.804C144.385 200.804 144.362 200.798 144.342 200.786L144.244 200.711C144.206 200.68 144.159 200.662 144.11 200.659C144.014 200.669 143.921 200.703 143.84 200.756C143.723 200.827 143.619 200.918 143.534 201.025C143.443 201.143 143.396 201.288 143.399 201.436C143.389 201.493 143.389 201.552 143.399 201.608C143.413 201.63 143.432 201.647 143.454 201.66C143.476 201.673 143.501 201.681 143.526 201.683C143.608 201.697 143.691 201.697 143.773 201.683L144.192 201.608C144.544 201.541 144.783 201.609 144.94 201.803C145.105 202.08 145.181 202.401 145.157 202.723C145.155 202.945 145.125 203.167 145.067 203.381C145.008 203.615 144.923 203.84 144.813 204.054C144.703 204.276 144.565 204.482 144.401 204.668C144.246 204.85 144.062 205.004 143.855 205.124C143.691 205.229 143.504 205.293 143.309 205.311C143.169 205.316 143.03 205.277 142.913 205.199C142.797 205.12 142.709 205.008 142.659 204.877C142.598 204.735 142.568 204.583 142.569 204.428C142.562 204.351 142.577 204.273 142.614 204.204C142.632 204.142 142.672 204.089 142.726 204.054L143.175 203.793C143.235 203.793 143.279 203.755 143.309 203.793L143.407 203.897C143.426 203.92 143.451 203.938 143.478 203.951C143.505 203.963 143.534 203.971 143.564 203.972C143.669 203.973 143.771 203.939 143.855 203.875C143.99 203.798 144.112 203.7 144.214 203.583C144.265 203.522 144.308 203.454 144.342 203.381C144.394 203.322 144.431 203.25 144.446 203.172Z" fill="#FAFAFA"/>
<path d="M145.972 201.144C145.971 200.756 146.003 200.368 146.069 199.985C146.132 199.625 146.23 199.272 146.361 198.93C146.471 198.625 146.622 198.335 146.81 198.07C146.967 197.842 147.171 197.651 147.408 197.509C147.582 197.393 147.793 197.347 147.999 197.382C148.182 197.424 148.342 197.534 148.448 197.689C148.589 197.892 148.688 198.12 148.74 198.362C148.812 198.676 148.847 198.997 148.845 199.319V199.783C148.847 199.861 148.829 199.939 148.792 200.008C148.774 200.069 148.734 200.122 148.68 200.157L146.735 201.287C146.731 201.418 146.748 201.55 146.788 201.676C146.816 201.76 146.868 201.835 146.937 201.892C146.999 201.941 147.076 201.965 147.154 201.96C147.244 201.949 147.331 201.918 147.408 201.87C147.522 201.809 147.623 201.728 147.708 201.631C147.784 201.545 147.849 201.449 147.902 201.346C147.934 201.287 147.969 201.23 148.007 201.174C148.039 201.136 148.077 201.104 148.119 201.077L148.583 200.808C148.599 200.795 148.618 200.788 148.639 200.788C148.659 200.788 148.679 200.795 148.695 200.808C148.715 200.832 148.729 200.859 148.737 200.889C148.744 200.919 148.745 200.95 148.74 200.98C148.732 201.126 148.701 201.27 148.65 201.406C148.586 201.614 148.5 201.814 148.396 202.005C148.279 202.224 148.138 202.429 147.977 202.618C147.816 202.811 147.624 202.975 147.408 203.104C147.232 203.22 147.02 203.27 146.81 203.246C146.626 203.202 146.466 203.09 146.361 202.932C146.214 202.705 146.115 202.451 146.069 202.184C146.001 201.842 145.969 201.493 145.972 201.144ZM147.408 198.758C147.293 198.82 147.194 198.907 147.117 199.013C147.034 199.117 146.966 199.233 146.915 199.357C146.862 199.48 146.82 199.608 146.788 199.738C146.761 199.856 146.744 199.976 146.735 200.097L148.052 199.349C148.044 199.246 148.029 199.144 148.007 199.043C147.995 198.952 147.959 198.867 147.902 198.796C147.88 198.763 147.851 198.736 147.817 198.716C147.784 198.695 147.747 198.682 147.708 198.676C147.601 198.667 147.495 198.696 147.408 198.758Z" fill="#FAFAFA"/>
<path d="M151.193 196.672C150.967 196.801 150.788 197.001 150.685 197.24C150.568 197.556 150.515 197.891 150.528 198.228V200.928C150.529 201.005 150.513 201.081 150.483 201.152C150.464 201.214 150.425 201.267 150.37 201.302L149.929 201.556C149.922 201.564 149.914 201.57 149.904 201.575C149.894 201.579 149.884 201.581 149.873 201.581C149.862 201.581 149.852 201.579 149.842 201.575C149.833 201.57 149.824 201.564 149.817 201.556C149.783 201.505 149.768 201.445 149.772 201.384V196.545C149.772 196.468 149.788 196.391 149.817 196.32C149.838 196.26 149.877 196.208 149.929 196.171L150.37 195.916C150.386 195.902 150.406 195.894 150.427 195.894C150.447 195.894 150.467 195.902 150.483 195.916C150.517 195.964 150.533 196.022 150.528 196.081V196.32C150.617 196.119 150.727 195.929 150.857 195.752C150.975 195.588 151.128 195.452 151.305 195.355L151.575 195.198C151.589 195.184 151.608 195.177 151.627 195.177C151.647 195.177 151.665 195.184 151.679 195.198C151.716 195.248 151.734 195.309 151.732 195.37V196.051C151.731 196.129 151.713 196.205 151.679 196.275C151.661 196.335 151.624 196.387 151.575 196.425L151.193 196.672Z" fill="#FAFAFA"/>
<path d="M156.773 196.313C156.78 196.305 156.789 196.298 156.799 196.294C156.808 196.29 156.819 196.287 156.829 196.287C156.84 196.287 156.851 196.29 156.86 196.294C156.87 196.298 156.879 196.305 156.886 196.313C156.919 196.363 156.935 196.424 156.93 196.485V197.233C156.93 197.31 156.915 197.386 156.886 197.457C156.86 197.513 156.821 197.561 156.773 197.599L154.215 199.095C154.2 199.109 154.18 199.117 154.159 199.117C154.138 199.117 154.118 199.109 154.103 199.095C154.07 199.047 154.054 198.989 154.058 198.931V192.199C154.058 192.122 154.074 192.045 154.103 191.974C154.124 191.916 154.163 191.866 154.215 191.832L154.686 191.555C154.702 191.541 154.722 191.533 154.743 191.533C154.763 191.533 154.783 191.541 154.799 191.555C154.832 191.603 154.848 191.661 154.843 191.72V197.412L156.773 196.313Z" fill="#FAFAFA"/>
<path d="M159.07 190.778C159.238 190.661 159.441 190.606 159.646 190.621C159.821 190.634 159.984 190.715 160.102 190.845C160.241 191.005 160.344 191.194 160.401 191.398C160.481 191.663 160.526 191.937 160.536 192.214C160.536 192.274 160.536 192.356 160.536 192.453V193.029C160.536 193.119 160.536 193.201 160.536 193.268C160.521 193.594 160.476 193.917 160.401 194.233C160.332 194.542 160.232 194.843 160.102 195.131C159.983 195.399 159.83 195.651 159.646 195.879C159.488 196.086 159.293 196.261 159.07 196.395C158.897 196.508 158.692 196.563 158.486 196.552C158.314 196.537 158.153 196.457 158.037 196.328C157.894 196.173 157.791 195.986 157.738 195.782C157.658 195.517 157.613 195.243 157.604 194.966C157.604 194.907 157.604 194.832 157.604 194.735V194.159C157.604 194.061 157.604 193.979 157.604 193.919C157.612 193.592 157.655 193.266 157.731 192.947C157.804 192.636 157.906 192.333 158.037 192.042C158.156 191.775 158.307 191.524 158.486 191.294C158.645 191.085 158.843 190.91 159.07 190.778ZM159.773 192.707C159.773 192.542 159.745 192.378 159.691 192.221C159.663 192.126 159.605 192.042 159.526 191.982C159.462 191.939 159.385 191.921 159.309 191.93C159.224 191.946 159.142 191.979 159.07 192.027C158.982 192.075 158.901 192.135 158.83 192.206C158.745 192.296 158.672 192.396 158.613 192.505C158.538 192.642 158.483 192.788 158.449 192.939C158.4 193.13 158.37 193.326 158.359 193.523C158.359 193.583 158.359 193.65 158.359 193.732V194.263C158.359 194.346 158.359 194.413 158.359 194.458C158.366 194.623 158.396 194.787 158.449 194.944C158.476 195.04 158.534 195.124 158.613 195.183C158.645 195.205 158.68 195.221 158.717 195.228C158.755 195.236 158.793 195.236 158.83 195.228C158.915 195.214 158.996 195.183 159.07 195.138C159.156 195.088 159.237 195.028 159.309 194.959C159.393 194.868 159.465 194.767 159.526 194.66C159.598 194.522 159.653 194.377 159.691 194.226C159.739 194.035 159.767 193.839 159.773 193.642C159.777 193.573 159.777 193.503 159.773 193.433V192.909C159.777 192.842 159.777 192.775 159.773 192.707Z" fill="#FAFAFA"/>
<path d="M162.825 195.153C162.92 195.095 163.006 195.021 163.079 194.936C163.169 194.831 163.247 194.715 163.311 194.592C163.385 194.442 163.443 194.284 163.483 194.121C163.529 193.937 163.551 193.749 163.55 193.56V193.178C163.55 193.253 163.475 193.343 163.423 193.448C163.372 193.557 163.312 193.662 163.244 193.762C163.165 193.867 163.08 193.967 162.989 194.061C162.895 194.159 162.787 194.243 162.668 194.308C162.591 194.36 162.504 194.397 162.413 194.415C162.321 194.433 162.227 194.432 162.136 194.413C161.97 194.36 161.827 194.252 161.733 194.106C161.611 193.913 161.522 193.7 161.471 193.478C161.407 193.195 161.372 192.907 161.366 192.617C161.366 192.52 161.366 192.4 161.366 192.258C161.366 192.116 161.366 191.997 161.366 191.892C161.375 191.563 161.41 191.235 161.471 190.912C161.532 190.594 161.62 190.281 161.733 189.977C161.838 189.713 161.974 189.462 162.136 189.229C162.274 189.023 162.456 188.849 162.668 188.72C162.767 188.66 162.876 188.618 162.989 188.593C163.073 188.577 163.159 188.577 163.244 188.593C163.31 188.612 163.371 188.645 163.423 188.69C163.471 188.727 163.514 188.77 163.55 188.818V188.578C163.551 188.501 163.566 188.425 163.595 188.354C163.616 188.295 163.655 188.245 163.707 188.212L164.149 187.95C164.164 187.936 164.184 187.928 164.205 187.928C164.226 187.928 164.246 187.936 164.261 187.95C164.297 188 164.315 188.06 164.313 188.122V192.984C164.333 193.712 164.198 194.436 163.917 195.108C163.696 195.637 163.314 196.082 162.825 196.38C162.658 196.483 162.467 196.543 162.271 196.552C162.116 196.561 161.962 196.522 161.83 196.44C161.703 196.345 161.601 196.222 161.531 196.081C161.458 195.91 161.417 195.727 161.411 195.542C161.404 195.464 161.42 195.387 161.456 195.318C161.474 195.256 161.514 195.203 161.568 195.168L161.964 194.944C161.974 194.934 161.985 194.926 161.997 194.921C162.009 194.916 162.022 194.913 162.035 194.913C162.049 194.913 162.062 194.916 162.074 194.921C162.086 194.926 162.097 194.934 162.107 194.944C162.143 194.982 162.176 195.025 162.204 195.071C162.249 195.151 162.325 195.21 162.413 195.235C162.503 195.303 162.638 195.228 162.825 195.153ZM162.122 191.525C162.122 191.725 162.122 191.919 162.122 192.109C162.1 192.407 162.185 192.704 162.361 192.946C162.427 193.004 162.512 193.035 162.6 193.035C162.688 193.035 162.773 193.004 162.84 192.946C163.057 192.805 163.226 192.602 163.326 192.363C163.462 192.051 163.538 191.716 163.55 191.376C163.55 191.263 163.55 191.129 163.55 190.972C163.55 190.815 163.55 190.68 163.55 190.583C163.565 190.315 163.486 190.05 163.326 189.835C163.26 189.774 163.173 189.74 163.083 189.74C162.993 189.74 162.906 189.774 162.84 189.835C162.627 189.975 162.46 190.176 162.361 190.411C162.207 190.762 162.126 191.141 162.122 191.525Z" fill="#FAFAFA"/>
<path d="M166.056 184.883C166.071 184.871 166.089 184.864 166.108 184.864C166.127 184.864 166.146 184.871 166.161 184.883C166.2 184.931 166.219 184.993 166.213 185.055V185.87C166.214 185.948 166.196 186.025 166.161 186.095C166.14 186.151 166.103 186.2 166.056 186.237L165.555 186.529C165.548 186.537 165.539 186.543 165.53 186.547C165.52 186.552 165.509 186.554 165.499 186.554C165.488 186.554 165.478 186.552 165.468 186.547C165.458 186.543 165.45 186.537 165.443 186.529C165.423 186.506 165.408 186.48 165.399 186.452C165.39 186.424 165.387 186.394 165.39 186.364V185.549C165.39 185.471 165.408 185.394 165.443 185.324C165.464 185.266 165.503 185.216 165.555 185.182L166.056 184.883ZM166.183 191.907C166.183 191.981 166.168 192.055 166.138 192.124C166.114 192.182 166.076 192.234 166.026 192.273L165.577 192.528C165.571 192.535 165.563 192.542 165.554 192.546C165.545 192.55 165.535 192.553 165.525 192.553C165.515 192.553 165.505 192.55 165.496 192.546C165.487 192.542 165.479 192.535 165.473 192.528C165.433 192.479 165.415 192.418 165.42 192.356V187.516C165.42 187.438 165.438 187.361 165.473 187.292C165.494 187.233 165.53 187.182 165.577 187.142L166.026 186.888C166.041 186.874 166.061 186.866 166.082 186.866C166.103 186.866 166.123 186.874 166.138 186.888C166.172 186.936 166.188 186.994 166.183 187.052V191.907Z" fill="#FAFAFA"/>
<path d="M170.118 189.625C170.117 189.702 170.102 189.779 170.073 189.85C170.052 189.908 170.012 189.958 169.961 189.992L169.512 190.254C169.498 190.267 169.479 190.275 169.459 190.275C169.44 190.275 169.421 190.267 169.407 190.254C169.368 190.205 169.349 190.144 169.355 190.082V187.449C169.378 187.138 169.321 186.826 169.19 186.544C169.085 186.357 168.921 186.327 168.689 186.461C168.458 186.617 168.286 186.846 168.203 187.112C168.078 187.465 168.017 187.837 168.023 188.212V190.852C168.023 190.929 168.008 191.005 167.978 191.076C167.96 191.138 167.92 191.191 167.866 191.226L167.425 191.48C167.418 191.488 167.409 191.495 167.4 191.499C167.39 191.503 167.379 191.506 167.369 191.506C167.358 191.506 167.348 191.503 167.338 191.499C167.328 191.495 167.32 191.488 167.313 191.48C167.278 191.433 167.262 191.374 167.268 191.316V186.476C167.267 186.399 167.282 186.323 167.313 186.252C167.331 186.19 167.371 186.137 167.425 186.102L167.866 185.848C167.873 185.84 167.882 185.834 167.891 185.829C167.901 185.825 167.912 185.823 167.922 185.823C167.933 185.823 167.943 185.825 167.953 185.829C167.963 185.834 167.971 185.84 167.978 185.848C168.012 185.899 168.028 185.959 168.023 186.02V186.252C168.122 186.024 168.242 185.806 168.382 185.601C168.505 185.412 168.672 185.256 168.868 185.145C169.039 185.02 169.25 184.967 169.459 184.995C169.542 185.016 169.62 185.054 169.687 185.107C169.754 185.16 169.809 185.226 169.848 185.302C169.957 185.504 170.028 185.725 170.058 185.953C170.098 186.25 170.118 186.55 170.118 186.85V189.625Z" fill="#FAFAFA"/>
<path d="M207.847 167.851L200.584 172.04L201.713 161.852C200.838 161.388 200.284 160.259 200.284 158.636C200.284 155.741 202.05 152.382 204.219 151.156C206.388 149.929 208.146 151.23 208.146 154.148C208.101 155.864 207.611 157.539 206.725 159.01L207.847 167.851Z" fill="#455A64"/>
<path d="M207.854 167.851L201.459 164.164L200.584 172.047L207.854 167.851Z" fill="#37474F"/>
<path d="M204.204 151.133C202.622 152.202 201.443 153.768 200.853 155.584L206.71 158.965C207.596 157.495 208.086 155.819 208.131 154.103C208.146 151.208 206.388 149.884 204.204 151.133Z" fill="#37474F"/>
<path d="M168.898 117.212C166.408 115.775 162.974 115.977 159.174 118.169C151.59 122.552 145.441 133.196 145.441 141.955C145.441 146.354 146.997 149.435 149.495 150.857L154.335 153.669C156.818 155.105 160.252 154.896 164.059 152.704C171.644 148.328 177.792 137.677 177.792 128.918C177.792 124.542 176.251 121.438 173.768 120.039" fill="#407BFF"/>
<path d="M164.051 120.989C156.467 125.372 150.318 136.024 150.318 144.776C150.318 153.527 156.467 157.088 164.051 152.704C171.636 148.321 177.792 137.677 177.785 128.918C177.777 120.159 171.629 116.613 164.051 120.989Z" fill="#407BFF"/>
<path d="M171.629 140.422V141.424C169.812 144.668 167.205 147.4 164.051 149.368C161.097 151.066 158.426 151.253 156.467 150.169V148.104C156.567 145.956 157.18 143.864 158.255 142.001C159.33 140.139 160.835 138.561 162.645 137.4L164.642 136.248C166.408 135.231 168.128 135.096 169.474 135.882C170.821 136.667 171.629 138.32 171.629 140.422Z" fill="#407BFF"/>
<path opacity="0.4" d="M168.898 117.212L173.76 120.039C171.277 118.595 167.844 118.797 164.036 120.989C159.07 123.861 154.716 129.419 152.308 135.373L147.438 132.553C149.854 126.569 154.17 121.041 159.167 118.169C162.982 115.985 166.415 115.776 168.898 117.212Z" fill="white"/>
<path opacity="0.2" d="M154.163 153.557L149.503 150.857C147.004 149.436 145.449 146.369 145.449 141.956L150.318 144.783C150.348 149.047 151.784 152.083 154.163 153.557Z" fill="black"/>
<path opacity="0.1" d="M147.453 132.553L152.323 135.373C151.075 138.354 150.405 141.545 150.348 144.776L145.479 141.948C145.539 138.72 146.209 135.532 147.453 132.553Z" fill="black"/>
<path d="M162.316 135.777C161.852 135.782 161.395 135.663 160.992 135.433C160.506 135.109 160.117 134.66 159.866 134.133C159.614 133.607 159.51 133.022 159.563 132.441C159.627 131.078 160.016 129.75 160.698 128.569C161.38 127.387 162.335 126.386 163.483 125.649C163.944 125.281 164.506 125.06 165.094 125.016C165.683 124.973 166.271 125.107 166.782 125.403C167.292 125.699 167.702 126.142 167.957 126.674C168.212 127.206 168.3 127.803 168.21 128.387C168.146 129.749 167.756 131.076 167.074 132.258C166.392 133.439 165.438 134.441 164.291 135.178C163.697 135.549 163.016 135.756 162.316 135.777Z" fill="white"/>
<path d="M169.474 135.874C168.128 135.089 166.408 135.224 164.642 136.241L162.645 137.393C160.834 138.555 159.328 140.134 158.254 141.997C157.179 143.861 156.566 145.955 156.467 148.104V150.176C158.426 151.261 161.097 151.074 164.051 149.376C167.205 147.408 169.812 144.675 171.629 141.432V140.43C171.629 138.32 170.851 136.667 169.474 135.874Z" fill="white"/>
<path d="M323.248 265.278C323.248 265.278 324.243 256.542 328.589 249.757C332.935 242.973 338.904 238.747 344.476 238.305C350.049 237.864 354.552 242.995 348.59 246.533C342.629 250.072 332.037 253.647 327.16 266.812L323.248 265.278Z" fill="#407BFF"/>
<path opacity="0.1" d="M323.248 265.278C323.248 265.278 324.243 256.542 328.589 249.757C332.935 242.973 338.904 238.747 344.476 238.305C350.049 237.864 354.552 242.995 348.59 246.533C342.629 250.072 332.037 253.647 327.16 266.812L323.248 265.278Z" fill="black"/>
<path d="M324.886 263.005H324.826C324.753 262.975 324.695 262.917 324.664 262.844C324.633 262.771 324.632 262.689 324.662 262.616C330.541 248.142 341.731 242.091 346.833 240.924C346.871 240.915 346.911 240.914 346.949 240.92C346.988 240.927 347.025 240.941 347.059 240.962C347.092 240.982 347.121 241.01 347.144 241.042C347.167 241.074 347.183 241.11 347.192 241.148C347.201 241.186 347.202 241.226 347.195 241.265C347.189 241.304 347.175 241.341 347.154 241.374C347.133 241.407 347.106 241.436 347.074 241.459C347.042 241.482 347.006 241.498 346.967 241.507C341.971 242.659 330.997 248.598 325.215 262.848C325.187 262.907 325.138 262.955 325.078 262.984C325.019 263.012 324.951 263.02 324.886 263.005Z" fill="white"/>
<path d="M354.642 263.176C354.141 264.313 352.899 264.912 351.747 265.375C350.595 265.839 349.338 266.34 348.71 267.417C347.453 269.587 349.518 272.653 348.172 274.755C347.855 275.179 347.455 275.533 346.998 275.798C346.54 276.063 346.033 276.232 345.509 276.296C344.648 276.453 343.773 276.453 342.906 276.528C342.49 276.523 342.075 276.49 341.664 276.431C340.455 276.161 339.191 276.295 338.066 276.812C336.338 277.785 335.822 279.961 334.76 281.644C334.111 282.635 333.256 283.474 332.253 284.104C331.25 284.734 330.122 285.14 328.948 285.295C328.2 285.392 326.704 285.534 325.956 285.093C325.897 285.064 325.842 285.029 325.791 284.988C325.679 284.868 325.545 284.711 325.485 284.629C325.481 284.612 325.481 284.594 325.485 284.577C325.178 283.447 325.679 282.28 325.702 281.113V280.904C325.649 279.55 325.612 278.204 325.582 276.857C325.517 274.364 325.492 271.871 325.507 269.377C325.507 267.762 325.328 265.996 326.016 264.478C326.764 262.802 328.649 262.765 329.359 261.127C329.644 260.469 329.793 259.773 330.07 259.107C330.498 258.139 331.183 257.307 332.051 256.702C332.918 256.097 333.936 255.741 334.992 255.674C338.275 255.509 341.215 258.165 344.499 257.918C345.344 257.851 346.174 257.589 347.012 257.439C349.668 256.938 352.742 257.693 354.238 259.945C354.566 260.409 354.775 260.946 354.845 261.51C354.916 262.074 354.846 262.646 354.642 263.176Z" fill="#407BFF"/>
<path d="M325.156 279.393C325.085 279.372 325.025 279.324 324.989 279.26C324.952 279.196 324.943 279.12 324.961 279.049C329.494 262.039 347.401 259.601 351.612 259.885C351.649 259.887 351.686 259.896 351.719 259.912C351.752 259.929 351.782 259.951 351.807 259.979C351.831 260.007 351.85 260.04 351.861 260.075C351.873 260.11 351.877 260.147 351.874 260.184C351.867 260.257 351.831 260.324 351.776 260.371C351.72 260.419 351.648 260.443 351.575 260.439C347.468 260.147 329.935 262.548 325.5 279.198C325.479 279.269 325.431 279.329 325.367 279.365C325.303 279.402 325.227 279.411 325.156 279.393Z" fill="white"/>
<path d="M345.075 270.776C345.018 270.769 344.966 270.742 344.925 270.702C343.27 269.267 341.318 268.215 339.209 267.622C337.1 267.028 334.886 266.908 332.725 267.268C332.652 267.275 332.58 267.254 332.522 267.21C332.463 267.166 332.424 267.101 332.411 267.029C332.4 266.956 332.418 266.881 332.462 266.821C332.505 266.761 332.57 266.72 332.643 266.707C334.897 266.332 337.206 266.46 339.404 267.082C341.602 267.704 343.636 268.805 345.359 270.305C345.385 270.331 345.407 270.362 345.421 270.396C345.435 270.43 345.443 270.466 345.443 270.503C345.443 270.54 345.435 270.577 345.421 270.611C345.407 270.645 345.385 270.676 345.359 270.702C345.325 270.742 345.28 270.771 345.229 270.784C345.178 270.798 345.124 270.795 345.075 270.776Z" fill="white"/>
<path d="M282.086 59.8398L284.464 60.7524V55.5164C284.464 51.3575 287.778 50.3626 291.376 52.4421C294.981 54.5215 297.899 59.5705 297.899 63.7294V64.4774C298.4 64.3242 298.929 64.2863 299.448 64.3666C299.966 64.4469 300.459 64.6433 300.891 64.9412C302.257 65.832 303.393 67.0326 304.208 68.4454C305.023 69.8581 305.493 71.4433 305.58 73.0719V73.416L308.902 75.3309C309.8 75.9174 310.548 76.7071 311.085 77.6362C311.621 78.5654 311.932 79.6077 311.991 80.6791C311.991 82.6538 310.607 83.4542 308.902 82.4668L282.086 66.9757C281.187 66.3906 280.439 65.601 279.903 64.6715C279.367 63.742 279.059 62.6989 279.004 61.6275C279.004 59.6603 280.373 58.8599 282.086 59.8398Z" fill="#E6E6E6"/>
<path d="M313.943 55.696L318.259 58.1868C318.235 57.9983 318.223 57.8084 318.222 57.6184V56.3692C318.222 54.1252 319.778 53.2426 321.707 54.3571C322.537 54.8648 323.246 55.5462 323.787 56.3542C324.101 53.5567 326.3 52.517 328.963 54.0504C330.485 55.0405 331.752 56.3753 332.661 57.9465C333.571 59.5176 334.098 61.281 334.199 63.0937V64.9637C334.218 65.7109 334.067 66.4527 333.758 67.1329L337.348 69.1974C337.908 69.5685 338.372 70.0657 338.705 70.6489C339.037 71.2322 339.229 71.8854 339.263 72.5559C339.263 73.7901 338.395 74.2913 337.326 73.6779L313.943 60.2139C313.378 59.8455 312.907 59.3484 312.571 58.7634C312.234 58.1784 312.04 57.522 312.006 56.8479C312.006 55.5838 312.873 55.0826 313.943 55.696Z" fill="#E6E6E6"/>
<path d="M297.233 169.22C294.091 174.531 291.069 179.146 288.945 181.36C284.913 183.23 275.444 186.117 271.741 186.596C271.091 186.679 270.432 186.525 269.886 186.162C268.427 185.205 267.298 185.048 265.764 184.517C264.56 184.105 264.051 183.529 263.827 183.769C263.595 184.04 263.479 184.392 263.503 184.748C263.526 185.105 263.688 185.438 263.954 185.676C264.53 186.223 265.167 186.7 265.854 187.097C264.212 187.505 262.498 187.535 260.843 187.187C257.634 186.342 256.123 187.883 258.292 191.368C259.04 192.61 262.122 194.607 268.315 194.069C270.525 193.95 272.725 193.7 274.905 193.321C280.844 192.049 287.449 190.822 291.511 189.581C293.021 188.987 294.374 188.049 295.46 186.843C302.289 179.056 304.556 173.506 307.548 168.465L307.293 160.237C302.446 160.072 299.858 164.777 297.233 169.22Z" fill="#FFA8A7"/>
<path d="M308.124 160.072C306.718 159.874 305.285 160.065 303.98 160.622C302.675 161.18 301.547 162.084 300.718 163.236C297.397 167.492 291.518 177.71 291.518 177.71C291.518 177.71 293.44 182.834 298.632 183.694L306.972 172.429C306.972 172.429 310.921 164.605 308.124 160.072Z" fill="#455A64"/>
<path d="M326.158 274.92H320.72V284.614H326.158V274.92Z" fill="#FFA8A7"/>
<path d="M307.308 274.404L301.878 274.598L301.601 264.336L307.308 264.141V274.404Z" fill="#FFA8A7"/>
<path d="M326.921 191.002C326.921 196.402 326.128 239.914 326.128 239.914C326.248 241.469 327.624 244.342 327.347 250.318C326.936 258.434 326.39 279.767 326.39 279.767C325.456 280.245 324.426 280.504 323.378 280.525C322.33 280.545 321.29 280.327 320.338 279.887C320.338 279.887 315.925 249.967 314.953 241.956C314.1 234.932 311.916 211.684 311.916 211.684L308.976 239.166C309.6 242.114 309.826 245.133 309.65 248.142C309.395 251.882 307.645 271.24 307.645 271.24C306.705 271.794 305.652 272.127 304.565 272.214C303.478 272.301 302.385 272.139 301.369 271.741C301.369 271.741 298.272 242.569 298.213 239.143C298.138 235.254 300.023 190.957 300.023 190.957L326.921 191.002Z" fill="#37474F"/>
<path d="M320.72 281.817V281.009C320.196 281.241 318.992 286.043 316.83 288.092C315.117 289.723 312.784 291.6 312.185 293.418C311.587 295.236 315.439 296.35 317.047 296.058C318.902 295.714 322.134 294.346 322.942 293.066C323.749 291.787 324.131 289.932 324.789 289.005C325.447 288.077 326.966 287.045 327.317 285.968C327.427 284.96 327.323 283.941 327.011 282.976C326.756 281.974 326.487 280.874 326.158 280.971V281.585C325.391 282.214 324.427 282.553 323.435 282.542C322.642 282.609 320.712 282.445 320.72 281.817Z" fill="#263238"/>
<path d="M301.818 272.848C301.534 272.848 301.302 273.274 300.681 273.977C299.758 274.948 298.678 275.757 297.487 276.371C295.453 277.433 291.503 279.064 289.7 279.909C288.578 280.432 288.631 281.839 289.79 282.639C290.95 283.439 293.74 284.015 297.091 283.237C298.916 282.811 301.294 281.053 302.805 281.15C304.316 281.248 307.121 281.218 308.236 280.402C309.35 279.587 308.902 277.897 308.587 276.438C308.243 274.837 307.839 272.347 307.308 272.459V273.02C306.658 274.052 303.284 274.471 301.848 273.715L301.818 272.848Z" fill="#263238"/>
<path d="M311.916 211.684C309.087 210.758 306.501 209.212 304.346 207.159C304.346 207.159 305.842 210.009 310.151 212.664L309.223 237.206L311.916 211.684Z" fill="#263238"/>
<path d="M323.884 160.865C323.884 160.865 328.372 161.897 328.05 170.006L327.115 182.909V202.282C323.121 206.815 305.423 206.486 299.327 201.923C299.327 201.923 300.015 178.996 300.427 170.17C300.718 163.902 302.162 160.745 308.326 160.057L315.903 160.386L323.884 160.865Z" fill="#F6B801"/>
<path d="M318.169 144.02C318.195 145.105 318.006 146.185 317.612 147.197C317.219 148.209 316.629 149.133 315.876 149.916C315.124 150.699 314.224 151.326 313.229 151.759C312.233 152.193 311.162 152.425 310.076 152.442C305.588 152.442 302.955 148.568 301.983 144.02C300.187 135.695 305.603 135.59 310.076 135.59C312.267 135.635 314.35 136.548 315.868 138.129C317.386 139.71 318.213 141.829 318.169 144.02Z" fill="#263238"/>
<path d="M322.298 147.423C322.298 147.423 321.057 153.497 320.555 154.499C320.24 155.103 319.704 155.561 319.059 155.778L319.149 151.507L322.298 147.423Z" fill="#263238"/>
<path d="M320.735 138.724C320.735 138.724 321.625 138.5 322.575 139.981C323.383 141.245 323.57 144.087 322.298 147.461L319.957 147.745L320.735 138.724Z" fill="#263238"/>
<path d="M321.595 139.958L324.467 140.011C324.487 139.825 324.468 139.637 324.412 139.459C324.355 139.281 324.263 139.117 324.14 138.976C324.017 138.836 323.866 138.722 323.698 138.643C323.529 138.563 323.345 138.52 323.158 138.515C322.766 138.52 322.389 138.671 322.1 138.937C321.812 139.204 321.632 139.567 321.595 139.958Z" fill="#263238"/>
<path d="M321.947 139.277L324.071 137.235C323.949 137.091 323.798 136.974 323.628 136.891C323.458 136.808 323.272 136.761 323.083 136.753C322.894 136.745 322.705 136.777 322.529 136.846C322.353 136.915 322.193 137.019 322.059 137.153C321.777 137.429 321.609 137.8 321.588 138.193C321.568 138.587 321.696 138.974 321.947 139.277Z" fill="#263238"/>
<path d="M319.254 147.708C319.725 147.999 320.391 147.064 320.974 146.429C321.558 145.793 323.368 145.209 324.31 147.274C325.253 149.338 323.645 151.38 322.298 152.054C319.882 153.25 319.119 151.508 319.119 151.508L318.917 161.127C315.521 166.363 307.817 166.198 310.592 160.873V157.948C309.451 158.138 308.291 158.198 307.136 158.127C305.251 157.828 304.07 156.28 303.494 154.155C302.581 150.745 302.229 147.992 303.007 141.282C303.86 133.937 312.073 133.855 316.471 136.794C320.87 139.734 319.254 147.708 319.254 147.708Z" fill="#FFA8A7"/>
<path d="M309.021 140.138C310.981 139.943 312.918 139.539 314.886 139.39C315.31 139.338 315.74 139.359 316.157 139.45C317.653 139.861 317.474 141.611 317.713 142.831C318.124 144.94 318.461 148.508 319.254 148.523C319.493 148.523 320.391 146.974 320.974 146.421C321.295 145.944 321.476 145.387 321.498 144.813C321.647 143.945 321.722 143.055 321.79 142.172C321.849 141.424 321.924 140.676 321.924 139.928C321.958 139.083 321.891 138.237 321.722 137.408C321.535 136.702 321.175 136.054 320.675 135.523L320.526 135.358C319.54 134.327 318.343 133.521 317.017 132.994C315.11 132.28 313.11 131.844 311.078 131.7C309.049 131.557 307.03 131.307 305.027 130.952C304.912 130.919 304.79 130.919 304.675 130.952C304.594 130.997 304.526 131.062 304.476 131.14C304.426 131.219 304.397 131.308 304.391 131.401C304.309 131.866 304.36 132.344 304.539 132.781C304.718 133.218 305.017 133.595 305.401 133.87C304.047 133.974 302.491 133.271 301.19 132.912C301.084 132.867 300.971 132.844 300.857 132.844C300.742 132.844 300.629 132.867 300.524 132.912C300.393 133.003 300.3 133.139 300.262 133.294C300.167 133.645 300.155 134.014 300.225 134.371C300.344 135.453 300.746 136.485 301.392 137.363C302.4 138.675 303.824 139.606 305.431 140.003C306.614 140.231 307.825 140.277 309.021 140.138Z" fill="#263238"/>
<path d="M310.6 157.948C310.6 157.948 314.803 157.065 316.269 156.25C317.143 155.772 317.852 155.042 318.304 154.155C318.083 155.046 317.689 155.885 317.145 156.624C316.075 158.06 310.6 159.107 310.6 159.107V157.948Z" fill="#F28F8F"/>
<path d="M311.609 146.608C311.601 146.839 311.685 147.064 311.842 147.233C311.999 147.403 312.216 147.503 312.447 147.513C312.63 147.528 312.814 147.487 312.974 147.396C313.133 147.305 313.262 147.168 313.342 147.003C313.423 146.838 313.451 146.652 313.425 146.47C313.398 146.288 313.316 146.119 313.192 145.984C313.067 145.849 312.904 145.755 312.725 145.714C312.545 145.673 312.358 145.687 312.187 145.755C312.016 145.822 311.869 145.94 311.766 146.092C311.663 146.244 311.608 146.424 311.609 146.608Z" fill="#263238"/>
<path d="M312.956 142.98L314.758 144.02C314.89 143.763 314.919 143.467 314.842 143.19C314.764 142.913 314.585 142.675 314.34 142.524C314.22 142.457 314.088 142.415 313.951 142.402C313.815 142.389 313.677 142.404 313.547 142.447C313.417 142.49 313.297 142.56 313.195 142.651C313.094 142.743 313.012 142.855 312.956 142.98Z" fill="#263238"/>
<path d="M310.973 152.674L309.051 153.422C309.09 153.554 309.155 153.677 309.243 153.782C309.331 153.888 309.44 153.974 309.563 154.036C309.685 154.097 309.82 154.133 309.957 154.141C310.094 154.149 310.231 154.128 310.36 154.081C310.622 153.968 310.831 153.76 310.945 153.499C311.059 153.237 311.069 152.943 310.973 152.674Z" fill="#F28F8F"/>
<path d="M303.875 143.751L305.521 142.434C305.447 142.319 305.35 142.221 305.236 142.146C305.121 142.071 304.993 142.021 304.858 141.999C304.723 141.978 304.585 141.984 304.453 142.019C304.321 142.054 304.198 142.116 304.092 142.202C303.872 142.389 303.728 142.649 303.688 142.935C303.648 143.221 303.715 143.511 303.875 143.751Z" fill="#263238"/>
<path d="M304.601 146.361C304.614 146.525 304.674 146.681 304.775 146.811C304.875 146.941 305.011 147.039 305.166 147.093C305.321 147.146 305.489 147.154 305.648 147.114C305.807 147.074 305.952 146.989 306.063 146.868C306.175 146.748 306.249 146.598 306.276 146.436C306.304 146.274 306.284 146.107 306.218 145.957C306.153 145.806 306.045 145.678 305.908 145.588C305.77 145.498 305.61 145.449 305.446 145.449C305.33 145.453 305.216 145.479 305.111 145.527C305.006 145.575 304.911 145.644 304.833 145.729C304.754 145.814 304.693 145.913 304.653 146.022C304.614 146.13 304.596 146.246 304.601 146.361Z" fill="#263238"/>
<path d="M309.111 145.658L309.014 150.976L305.992 150.288L309.111 145.658Z" fill="#F28F8F"/>
<path d="M237.348 190.201L242.038 187.494L243.893 185.242L239.21 187.95L237.348 190.201Z" fill="#F35B05"/>
<path d="M250.101 197.562L254.791 194.854L258.703 191.391L254.021 194.091L250.101 197.562Z" fill="#F35B05"/>
<path d="M289.94 206.904C291.049 208.391 291.72 210.158 291.877 212.006C290.773 210.517 290.102 208.751 289.94 206.904ZM300.838 207.047C299.26 196.313 293.493 185.699 286.626 181.727C283.327 179.819 280.276 179.752 277.83 181.181L273.416 183.724L273.17 183.874C272.973 183.982 272.783 184.102 272.601 184.233C272.239 184.482 271.898 184.762 271.584 185.07L271.434 185.212C271.3 185.347 271.158 185.504 271.03 185.654C270.903 185.803 270.709 186.035 270.559 186.237C270.242 186.655 269.954 187.095 269.699 187.554C269.564 187.786 269.437 188.032 269.317 188.302L230.773 166.056L226.091 168.756V171.748L226.487 171.973L226.861 172.19V172.788L226.113 173.229V174.965L231.775 186.933L237.37 190.172L239.233 187.928L244.17 190.882L247.005 195.737L250.131 197.539L254.043 194.069L258.845 196.844L260.461 203.509L268.532 208.176C268.931 209.872 269.43 211.543 270.028 213.18C270.08 213.345 270.148 213.517 270.215 213.704C272.893 220.735 277.149 226.756 281.951 229.531C282.527 229.873 283.13 230.165 283.754 230.407C284.084 230.538 284.421 230.65 284.764 230.743C285.063 230.823 285.362 230.89 285.661 230.945C286.606 231.117 287.574 231.117 288.519 230.945L288.908 230.848C289.094 230.81 289.276 230.758 289.454 230.691L289.872 230.526C290.021 230.473 290.164 230.405 290.299 230.324C290.437 230.265 290.572 230.197 290.703 230.122L290.897 230.003C290.932 229.991 290.965 229.973 290.994 229.95C292.064 229.337 294.697 227.811 295.415 227.407C298.976 225.343 301.279 220.122 301.279 212.739C301.273 210.833 301.126 208.93 300.838 207.047Z" fill="#F35B05"/>
<path d="M288.571 215.963C286.716 214.893 285.22 211.721 285.22 208.879C285.22 206.037 286.716 204.593 288.571 205.655C290.426 206.717 291.914 209.896 291.914 212.746C291.914 215.596 290.418 217.032 288.571 215.963ZM296.148 209.747C294.577 199.02 288.81 188.399 281.936 184.434C278.75 182.594 275.803 182.46 273.409 183.724L273.162 183.873C272.966 183.982 272.776 184.102 272.594 184.232C272.231 184.482 271.891 184.762 271.576 185.07L271.427 185.212C271.292 185.347 271.15 185.504 271.023 185.654C270.896 185.803 270.701 186.035 270.552 186.237C270.234 186.655 269.947 187.095 269.691 187.554C269.557 187.785 269.43 188.032 269.31 188.302C268.613 189.747 268.11 191.279 267.814 192.857L226.083 168.756V171.748L226.479 171.973L226.853 172.19V172.788L226.105 173.229V174.965L231.768 186.933L237.363 190.172L239.225 187.928L244.162 190.882L246.997 195.737L250.124 197.539L254.036 194.069L258.838 196.844L260.454 203.508L268.532 208.176C268.931 209.872 269.43 211.543 270.028 213.18C270.08 213.345 270.148 213.517 270.215 213.704C272.893 220.735 277.149 226.756 281.951 229.531C282.527 229.873 283.13 230.165 283.754 230.407C284.084 230.538 284.421 230.65 284.764 230.743C285.063 230.823 285.362 230.89 285.661 230.945C286.606 231.117 287.574 231.117 288.519 230.945L288.908 230.848C289.093 230.81 289.276 230.758 289.454 230.691L289.872 230.526C290.021 230.473 290.163 230.405 290.299 230.324C290.437 230.264 290.572 230.197 290.703 230.122L290.897 230.003C290.932 229.991 290.965 229.973 290.994 229.95C294.405 227.796 296.597 222.65 296.597 215.447C296.584 213.538 296.434 211.633 296.148 209.747Z" fill="#F18700"/>
<path opacity="0.4" d="M301.264 212.731C301.264 220.114 298.961 225.335 295.4 227.399C294.652 227.803 292.049 229.329 290.979 229.943C294.39 227.788 296.582 222.642 296.582 215.439C296.574 213.534 296.429 211.631 296.148 209.747C294.577 199.02 288.81 188.399 281.936 184.434C278.75 182.594 275.803 182.46 273.409 183.724L277.822 181.181C280.268 179.752 283.32 179.819 286.619 181.727C293.493 185.698 299.26 196.313 300.831 207.046C301.116 208.928 301.261 210.828 301.264 212.731Z" fill="#FFC727"/>
<path d="M296.582 215.424C296.582 222.627 294.39 227.774 290.979 229.928C292.049 229.314 294.682 227.789 295.4 227.385C298.961 225.32 301.264 220.099 301.264 212.716C301.264 212.447 301.264 212.17 301.264 211.894L296.582 214.601C296.575 214.893 296.582 215.162 296.582 215.424Z" fill="#F35B05"/>
<path opacity="0.15" d="M267.993 195.916V197.434L226.091 173.244L226.861 172.795V172.167L267.993 195.916Z" fill="black"/>
<path opacity="0.15" d="M267.993 196.545V197.435L226.091 173.244L226.861 172.796V172.788L267.993 196.545Z" fill="black"/>
<path opacity="0.15" d="M286.215 227.392C284.627 227.351 283.078 226.889 281.727 226.053C274.898 222.111 269.34 210.382 269.34 199.91C269.34 193.799 271.187 189.236 274.411 187.374C276.655 186.072 279.311 186.237 282.101 187.845C288.923 191.787 294.48 203.553 294.48 214.025C294.48 220.129 292.633 224.699 289.409 226.554C288.436 227.11 287.335 227.398 286.215 227.392ZM277.65 187.262C276.653 187.256 275.673 187.514 274.808 188.01C271.868 189.708 270.11 194.158 270.11 199.903C270.11 210.136 275.496 221.595 282.123 225.395C284.659 226.891 287.06 227.025 289.057 225.873C291.997 224.176 293.755 219.732 293.755 213.988C293.755 203.748 288.369 192.296 281.749 188.488C280.512 187.736 279.098 187.323 277.65 187.292V187.262Z" fill="black"/>
<path opacity="0.4" d="M269.28 188.287C268.583 189.732 268.08 191.264 267.784 192.842L226.053 168.741L230.736 166.041L269.28 188.287Z" fill="#F6B801"/>
<path d="M323.518 190.628C325.702 186.491 328.2 177.201 329.442 172.511C331.207 165.854 328.35 161.665 325.103 161.493C323.076 161.807 316.397 186.095 316.397 186.095C315.649 186.686 305.498 191.84 302.237 193.134C301.654 193.354 301.01 193.354 300.427 193.134C298.863 192.565 297.794 192.67 296.26 192.52C295.056 192.401 294.45 191.974 294.293 192.228C294.15 192.544 294.132 192.902 294.242 193.231C294.351 193.559 294.581 193.834 294.884 194.001C295.544 194.386 296.247 194.692 296.978 194.914C295.668 195.311 294.301 195.496 292.932 195.46C289.79 195.393 288.661 196.754 291.099 199.948C292.595 201.938 295.071 202.566 300.599 200.658C302.185 200.105 304.339 199.035 306.351 198.31C310.495 196.814 311.587 196.634 314.743 195.565C319.344 194.009 322.545 192.468 323.518 190.628Z" fill="#FFA8A7"/>
<path d="M323.884 160.865C325.791 161.127 327.624 161.553 328.753 163.109C329.883 164.665 330.788 166.849 329.681 172.795C328.833 176.977 327.699 181.096 326.285 185.122C326.285 185.122 321.842 187.022 317.122 182.205L320.368 169.654C320.368 169.654 320.892 161.493 323.884 160.865Z" fill="#455A64"/>
</svg>
