<svg width="326" height="283" viewBox="0 0 326 283" fill="none" xmlns="http://www.w3.org/2000/svg">
<rect x="131" y="78" width="195" height="126" rx="20" fill="#2464AB"/>
<mask id="path-2-inside-1_637_662" fill="white">
<path d="M120.338 120.139C93.0892 92.7143 93.2322 48.393 120.657 21.1447L141.938 7.15256e-06L163.083 21.2815C190.331 48.7063 190.188 93.0276 162.764 120.276L141.482 141.421L120.338 120.139Z"/>
</mask>
<path d="M120.338 120.139C93.0892 92.7143 93.2322 48.393 120.657 21.1447L141.938 7.15256e-06L163.083 21.2815C190.331 48.7063 190.188 93.0276 162.764 120.276L141.482 141.421L120.338 120.139Z" fill="#F6B801"/>
<path d="M106.15 134.236C71.1162 98.9751 71.3001 41.9906 106.56 6.95697L142.03 -28.2841L141.847 28.2841L134.753 35.3323C115.164 54.7955 115.062 86.4535 134.525 106.043L106.15 134.236ZM177.271 7.18511C206.076 36.177 205.925 83.031 176.933 111.836L130.114 158.355L152.851 124.487L159.944 117.438C179.534 97.9753 174.587 61.2356 148.895 35.378L177.271 7.18511ZM130.114 158.355L106.15 134.236C71.1162 98.9751 71.3001 41.9906 106.56 6.95697L134.753 35.3323C115.164 54.7955 115.062 86.4535 134.525 106.043L152.851 124.487L130.114 158.355ZM142.03 -28.2841L177.271 7.18511C206.076 36.177 205.925 83.031 176.933 111.836L159.944 117.438C179.534 97.9753 174.587 61.2356 148.895 35.378L141.847 28.2841L142.03 -28.2841Z" fill="#2464AB" mask="url(#path-2-inside-1_637_662)"/>
<mask id="path-4-inside-2_637_662" fill="white">
<path d="M111 141C72.3401 141 41 109.66 41 71L41 41L71 41C109.66 41 141 72.3401 141 111V141H111Z"/>
</mask>
<path d="M111 141C72.3401 141 41 109.66 41 71L41 41L71 41C109.66 41 141 72.3401 141 111V141H111Z" fill="#F6B801"/>
<path d="M111 161C61.2944 161 21 120.706 21 71L21 21L61 61V71C61 98.6142 83.3858 121 111 121V161ZM71 21C111.869 21 145 54.1309 145 95V161L137 121V111C137 83.3858 107.451 61 71 61L71 21ZM145 161H111C61.2944 161 21 120.706 21 71H61C61 98.6142 83.3858 121 111 121H137L145 161ZM21 21L71 21C111.869 21 145 54.1309 145 95L137 111C137 83.3858 107.451 61 71 61L61 61L21 21Z" fill="#2464AB" mask="url(#path-4-inside-2_637_662)"/>
<mask id="path-6-inside-3_637_662" fill="white">
<path d="M21.2185 119.485C48.5621 92.1552 92.8837 92.1664 120.213 119.51L141.421 140.729L120.203 161.936C92.8591 189.266 48.5375 189.255 21.2077 161.911L-8.44002e-05 140.693L21.2185 119.485Z"/>
</mask>
<path d="M21.2185 119.485C48.5621 92.1552 92.8837 92.1664 120.213 119.51L141.421 140.729L120.203 161.936C92.8591 189.266 48.5375 189.255 21.2077 161.911L-8.44002e-05 140.693L21.2185 119.485Z" fill="#F6B801"/>
<path d="M7.07994 105.339C35.9861 76.4477 82.8403 76.4596 111.732 105.366L158.389 152.047L124.454 129.411L117.384 122.338C97.863 102.807 61.1382 107.863 35.357 133.631L7.07994 105.339ZM134.341 176.082C99.1851 211.22 42.2003 211.206 7.06202 176.05L-28.2844 140.686L28.2842 140.7L35.3535 147.773C54.8747 167.304 86.533 167.312 106.064 147.791L134.341 176.082ZM-28.2844 140.686L7.07994 105.339C35.9861 76.4477 82.8403 76.4596 111.732 105.366L117.384 122.338C97.863 102.807 61.1382 107.863 35.357 133.631L28.2842 140.7L-28.2844 140.686ZM158.389 152.047L134.341 176.082C99.1851 211.22 42.2003 211.206 7.06202 176.05L35.3535 147.773C54.8747 167.304 86.533 167.312 106.064 147.791L124.454 129.411L158.389 152.047Z" fill="#2464AB" mask="url(#path-6-inside-3_637_662)"/>
<mask id="path-8-inside-4_637_662" fill="white">
<path d="M41 211C41 172.34 72.3401 141 111 141H141V171C141 209.66 109.66 241 71 241H41L41 211Z"/>
</mask>
<path d="M41 211C41 172.34 72.3401 141 111 141H141V171C141 209.66 109.66 241 71 241H41L41 211Z" fill="#F35B05"/>
<path d="M21 211C21 170.131 54.1309 137 95 137L161 137L121 145H111C83.3858 145 61 174.549 61 211H21ZM161 171C161 220.706 120.706 261 71 261H21L61 221H71C98.6142 221 121 198.614 121 171H161ZM21 261L21 211C21 170.131 54.1309 137 95 137L111 145C83.3858 145 61 174.549 61 211V221L21 261ZM161 137V171C161 220.706 120.706 261 71 261L71 221C98.6142 221 121 198.614 121 171V145L161 137Z" fill="#2464AB" mask="url(#path-8-inside-4_637_662)"/>
<mask id="path-10-inside-5_637_662" fill="white">
<path d="M119.338 261.139C92.0892 233.714 92.2322 189.393 119.657 162.145L140.938 141L162.083 162.282C189.331 189.706 189.188 234.028 161.764 261.276L140.482 282.421L119.338 261.139Z"/>
</mask>
<path d="M119.338 261.139C92.0892 233.714 92.2322 189.393 119.657 162.145L140.938 141L162.083 162.282C189.331 189.706 189.188 234.028 161.764 261.276L140.482 282.421L119.338 261.139Z" fill="#F35B05"/>
<path d="M105.15 275.236C76.3444 246.244 76.4956 199.39 105.487 170.584L152.307 124.066L129.57 157.934L122.476 164.982C102.887 184.445 107.834 221.185 133.525 247.043L105.15 275.236ZM176.271 148.185C211.304 183.446 211.121 240.43 175.86 275.464L140.391 310.705L140.573 254.137L147.667 247.088C167.256 227.625 167.359 195.967 147.895 176.378L176.271 148.185ZM140.391 310.705L105.15 275.236C76.3444 246.244 76.4956 199.39 105.487 170.584L122.476 164.982C102.887 184.445 107.834 221.185 133.525 247.043L140.573 254.137L140.391 310.705ZM152.307 124.066L176.271 148.185C211.304 183.446 211.121 240.43 175.86 275.464L147.667 247.088C167.256 227.625 167.359 195.967 147.895 176.378L129.57 157.934L152.307 124.066Z" fill="#2464AB" mask="url(#path-10-inside-5_637_662)"/>
<path d="M85.3864 176H67.25L90.8068 106.182H113.273L136.83 176H118.693L102.295 123.773H101.75L85.3864 176ZM82.9659 148.523H120.875V161.341H82.9659V148.523ZM133.744 106.182H152.597L167.358 135.398H167.972L182.733 106.182H201.585L176.051 152.682V176H159.278V152.682L133.744 106.182ZM269.963 141.091C269.963 148.773 268.486 155.284 265.531 160.625C262.577 165.966 258.577 170.023 253.531 172.795C248.509 175.568 242.872 176.955 236.622 176.955C230.349 176.955 224.702 175.557 219.679 172.761C214.656 169.966 210.668 165.909 207.713 160.591C204.781 155.25 203.315 148.75 203.315 141.091C203.315 133.409 204.781 126.898 207.713 121.557C210.668 116.216 214.656 112.159 219.679 109.386C224.702 106.614 230.349 105.227 236.622 105.227C242.872 105.227 248.509 106.614 253.531 109.386C258.577 112.159 262.577 116.216 265.531 121.557C268.486 126.898 269.963 133.409 269.963 141.091ZM252.713 141.091C252.713 136.545 252.065 132.705 250.77 129.568C249.497 126.432 247.656 124.057 245.247 122.443C242.861 120.83 239.986 120.023 236.622 120.023C233.281 120.023 230.406 120.83 227.997 122.443C225.588 124.057 223.736 126.432 222.44 129.568C221.168 132.705 220.531 136.545 220.531 141.091C220.531 145.636 221.168 149.477 222.44 152.614C223.736 155.75 225.588 158.125 227.997 159.739C230.406 161.352 233.281 162.159 236.622 162.159C239.986 162.159 242.861 161.352 245.247 159.739C247.656 158.125 249.497 155.75 250.77 152.614C252.065 149.477 252.713 145.636 252.713 141.091ZM299.418 106.182L297.849 154.625H283.838L282.27 106.182H299.418ZM290.827 176.989C288.395 176.989 286.304 176.125 284.554 174.398C282.827 172.67 281.963 170.58 281.963 168.125C281.963 165.716 282.827 163.659 284.554 161.955C286.304 160.227 288.395 159.364 290.827 159.364C293.168 159.364 295.224 160.227 296.997 161.955C298.793 163.659 299.69 165.716 299.69 168.125C299.69 169.761 299.27 171.25 298.429 172.591C297.611 173.932 296.531 175 295.19 175.795C293.872 176.591 292.418 176.989 290.827 176.989Z" fill="white"/>
<path d="M85.3864 176V182C88.009 182 90.3278 180.297 91.1119 177.794L85.3864 176ZM67.25 176L61.5649 174.082C60.9471 175.913 61.249 177.93 62.3761 179.499C63.5032 181.069 65.3175 182 67.25 182V176ZM90.8068 106.182V100.182C88.2323 100.182 85.9448 101.824 85.1217 104.264L90.8068 106.182ZM113.273 106.182L118.958 104.264C118.135 101.824 115.847 100.182 113.273 100.182V106.182ZM136.83 176V182C138.762 182 140.576 181.069 141.703 179.499C142.831 177.93 143.132 175.913 142.515 174.082L136.83 176ZM118.693 176L112.969 177.797C113.754 180.298 116.072 182 118.693 182V176ZM102.295 123.773L108.02 121.975C107.235 119.474 104.917 117.773 102.295 117.773V123.773ZM101.75 123.773V117.773C99.1273 117.773 96.8086 119.476 96.0245 121.979L101.75 123.773ZM82.9659 148.523V142.523C79.6522 142.523 76.9659 145.209 76.9659 148.523H82.9659ZM120.875 148.523H126.875C126.875 145.209 124.189 142.523 120.875 142.523V148.523ZM120.875 161.341V167.341C124.189 167.341 126.875 164.655 126.875 161.341H120.875ZM82.9659 161.341H76.9659C76.9659 164.655 79.6522 167.341 82.9659 167.341V161.341ZM85.3864 170H67.25V182H85.3864V170ZM72.9351 177.918L96.4919 108.1L85.1217 104.264L61.5649 174.082L72.9351 177.918ZM90.8068 112.182H113.273V100.182H90.8068V112.182ZM107.588 108.1L131.144 177.918L142.515 174.082L118.958 104.264L107.588 108.1ZM136.83 170H118.693V182H136.83V170ZM124.418 174.203L108.02 121.975L96.571 125.57L112.969 177.797L124.418 174.203ZM102.295 117.773H101.75V129.773H102.295V117.773ZM96.0245 121.979L79.6608 174.206L91.1119 177.794L107.476 125.567L96.0245 121.979ZM82.9659 154.523H120.875V142.523H82.9659V154.523ZM114.875 148.523V161.341H126.875V148.523H114.875ZM120.875 155.341H82.9659V167.341H120.875V155.341ZM88.9659 161.341V148.523H76.9659V161.341H88.9659ZM133.744 106.182V100.182C131.624 100.182 129.661 101.301 128.581 103.126C127.501 104.951 127.464 107.211 128.485 109.07L133.744 106.182ZM152.597 106.182L157.952 103.476C156.931 101.456 154.86 100.182 152.597 100.182V106.182ZM167.358 135.398L162.003 138.103C163.023 140.124 165.094 141.398 167.358 141.398V135.398ZM167.972 135.398V141.398C170.235 141.398 172.306 140.124 173.327 138.103L167.972 135.398ZM182.733 106.182V100.182C180.469 100.182 178.398 101.456 177.378 103.476L182.733 106.182ZM201.585 106.182L206.844 109.07C207.865 107.211 207.829 104.951 206.749 103.126C205.669 101.301 203.706 100.182 201.585 100.182V106.182ZM176.051 152.682L170.792 149.794C170.306 150.679 170.051 151.672 170.051 152.682H176.051ZM176.051 176V182C179.365 182 182.051 179.314 182.051 176H176.051ZM159.278 176H153.278C153.278 179.314 155.965 182 159.278 182V176ZM159.278 152.682H165.278C165.278 151.672 165.024 150.679 164.538 149.794L159.278 152.682ZM133.744 112.182H152.597V100.182H133.744V112.182ZM147.241 108.888L162.003 138.103L172.713 132.692L157.952 103.476L147.241 108.888ZM167.358 141.398H167.972V129.398H167.358V141.398ZM173.327 138.103L188.088 108.888L177.378 103.476L162.616 132.692L173.327 138.103ZM182.733 112.182H201.585V100.182H182.733V112.182ZM196.326 103.294L170.792 149.794L181.31 155.57L206.844 109.07L196.326 103.294ZM170.051 152.682V176H182.051V152.682H170.051ZM176.051 170H159.278V182H176.051V170ZM165.278 176V152.682H153.278V176H165.278ZM164.538 149.794L139.004 103.294L128.485 109.07L154.019 155.57L164.538 149.794ZM265.531 160.625L260.281 157.721V157.721L265.531 160.625ZM253.531 172.795L250.642 167.537L250.632 167.543L253.531 172.795ZM219.679 172.761L222.597 167.519L219.679 172.761ZM207.713 160.591L202.453 163.478C202.458 163.487 202.463 163.496 202.468 163.505L207.713 160.591ZM207.713 121.557L202.463 118.652C202.46 118.658 202.457 118.664 202.453 118.67L207.713 121.557ZM219.679 109.386L222.579 114.639V114.639L219.679 109.386ZM253.531 109.386L250.632 114.639L250.642 114.645L253.531 109.386ZM265.531 121.557L260.281 124.461L265.531 121.557ZM250.77 129.568L245.21 131.824C245.215 131.836 245.22 131.847 245.224 131.859L250.77 129.568ZM245.247 122.443L241.886 127.414C241.894 127.418 241.901 127.423 241.908 127.428L245.247 122.443ZM227.997 122.443L231.336 127.428L227.997 122.443ZM222.44 129.568L216.895 127.278C216.89 127.289 216.885 127.301 216.881 127.312L222.44 129.568ZM222.44 152.614L216.881 154.87C216.885 154.881 216.89 154.893 216.895 154.904L222.44 152.614ZM227.997 159.739L231.336 154.754L227.997 159.739ZM245.247 159.739L241.908 154.754C241.901 154.758 241.894 154.763 241.886 154.768L245.247 159.739ZM250.77 152.614L245.224 150.323C245.22 150.335 245.215 150.346 245.21 150.358L250.77 152.614ZM263.963 141.091C263.963 148.015 262.632 153.47 260.281 157.721L270.781 163.529C274.339 157.098 275.963 149.531 275.963 141.091H263.963ZM260.281 157.721C257.841 162.132 254.633 165.344 250.642 167.537L256.421 178.054C262.521 174.702 267.313 169.8 270.781 163.529L260.281 157.721ZM250.632 167.543C246.575 169.782 241.951 170.955 236.622 170.955V182.955C243.793 182.955 250.442 181.354 256.431 178.048L250.632 167.543ZM236.622 170.955C231.275 170.955 226.647 169.773 222.597 167.519L216.761 178.004C222.756 181.341 229.424 182.955 236.622 182.955V170.955ZM222.597 167.519C218.61 165.3 215.402 162.077 212.958 157.677L202.468 163.505C205.933 169.741 210.703 174.632 216.761 178.004L222.597 167.519ZM212.973 157.704C210.636 153.447 209.315 147.995 209.315 141.091H197.315C197.315 149.505 198.926 157.053 202.453 163.478L212.973 157.704ZM209.315 141.091C209.315 134.16 210.637 128.698 212.973 124.444L202.453 118.67C198.925 125.097 197.315 132.658 197.315 141.091H209.315ZM212.963 124.461C215.408 120.043 218.609 116.831 222.579 114.639L216.779 104.134C210.704 107.488 205.928 112.389 202.463 118.652L212.963 124.461ZM222.579 114.639C226.632 112.401 231.267 111.227 236.622 111.227V99.2273C229.432 99.2273 222.771 100.826 216.779 104.134L222.579 114.639ZM236.622 111.227C241.951 111.227 246.575 112.4 250.632 114.639L256.431 104.134C250.442 100.828 243.793 99.2273 236.622 99.2273V111.227ZM250.642 114.645C254.633 116.838 257.841 120.05 260.281 124.461L270.781 118.652C267.313 112.382 262.521 107.48 256.421 104.128L250.642 114.645ZM260.281 124.461C262.632 128.712 263.963 134.167 263.963 141.091H275.963C275.963 132.651 274.339 125.084 270.781 118.652L260.281 124.461ZM258.713 141.091C258.713 136.011 257.994 131.342 256.315 127.278L245.224 131.859C246.137 134.068 246.713 137.08 246.713 141.091H258.713ZM256.33 127.312C254.683 123.255 252.15 119.845 248.586 117.458L241.908 127.428C243.163 128.269 244.311 129.608 245.21 131.824L256.33 127.312ZM248.608 117.473C245.071 115.081 240.978 114.023 236.622 114.023V126.023C238.994 126.023 240.65 126.578 241.886 127.414L248.608 117.473ZM236.622 114.023C232.278 114.023 228.199 115.086 224.658 117.458L231.336 127.428C232.613 126.573 234.284 126.023 236.622 126.023V114.023ZM224.658 117.458C221.105 119.838 218.564 123.236 216.895 127.278L227.986 131.859C228.907 129.628 230.072 128.275 231.336 127.428L224.658 117.458ZM216.881 127.312C215.236 131.365 214.531 136.022 214.531 141.091H226.531C226.531 137.069 227.099 134.044 228 131.824L216.881 127.312ZM214.531 141.091C214.531 146.16 215.236 150.817 216.881 154.87L228 150.358C227.099 148.138 226.531 145.113 226.531 141.091H214.531ZM216.895 154.904C218.564 158.946 221.105 162.343 224.658 164.724L231.336 154.754C230.072 153.907 228.907 152.554 227.986 150.323L216.895 154.904ZM224.658 164.724C228.199 167.095 232.278 168.159 236.622 168.159V156.159C234.284 156.159 232.613 155.609 231.336 154.754L224.658 164.724ZM236.622 168.159C240.978 168.159 245.071 167.1 248.608 164.709L241.886 154.768C240.65 155.604 238.994 156.159 236.622 156.159V168.159ZM248.586 164.724C252.15 162.337 254.683 158.927 256.33 154.87L245.21 150.358C244.311 152.573 243.163 153.913 241.908 154.754L248.586 164.724ZM256.315 154.904C257.994 150.84 258.713 146.171 258.713 141.091H246.713C246.713 145.102 246.137 148.114 245.224 150.323L256.315 154.904ZM299.418 106.182L305.414 106.376C305.467 104.752 304.859 103.176 303.728 102.008C302.598 100.841 301.043 100.182 299.418 100.182V106.182ZM297.849 154.625V160.625C301.088 160.625 303.742 158.056 303.846 154.819L297.849 154.625ZM283.838 154.625L277.841 154.819C277.946 158.056 280.6 160.625 283.838 160.625V154.625ZM282.27 106.182V100.182C280.645 100.182 279.089 100.841 277.959 102.008C276.829 103.176 276.22 104.752 276.273 106.376L282.27 106.182ZM284.554 174.398L280.311 178.64C280.321 178.65 280.33 178.659 280.339 178.668L284.554 174.398ZM284.554 161.955L288.768 166.225L288.769 166.225L284.554 161.955ZM296.997 161.955L292.81 166.252C292.829 166.27 292.847 166.288 292.866 166.306L296.997 161.955ZM298.429 172.591L293.346 169.403C293.333 169.424 293.32 169.445 293.307 169.466L298.429 172.591ZM295.19 175.795L292.129 170.635C292.116 170.643 292.103 170.651 292.09 170.658L295.19 175.795ZM293.421 105.988L291.853 154.431L303.846 154.819L305.414 106.376L293.421 105.988ZM297.849 148.625H283.838V160.625H297.849V148.625ZM289.835 154.431L288.267 105.988L276.273 106.376L277.841 154.819L289.835 154.431ZM282.27 112.182H299.418V100.182H282.27V112.182ZM290.827 170.989C289.992 170.989 289.41 170.76 288.769 170.127L280.339 178.668C283.198 181.49 286.798 182.989 290.827 182.989V170.989ZM288.797 170.155C288.201 169.559 287.963 168.997 287.963 168.125H275.963C275.963 172.162 277.453 175.782 280.311 178.64L288.797 170.155ZM287.963 168.125C287.963 167.334 288.174 166.812 288.768 166.225L280.34 157.684C277.479 160.507 275.963 164.098 275.963 168.125H287.963ZM288.769 166.225C289.41 165.592 289.992 165.364 290.827 165.364V153.364C286.798 153.364 283.198 154.863 280.339 157.684L288.769 166.225ZM290.827 165.364C291.507 165.364 292.087 165.547 292.81 166.252L301.184 157.657C298.362 154.907 294.828 153.364 290.827 153.364V165.364ZM292.866 166.306C293.506 166.913 293.69 167.412 293.69 168.125H305.69C305.69 164.02 304.08 160.405 301.128 157.603L292.866 166.306ZM293.69 168.125C293.69 168.674 293.567 169.051 293.346 169.403L303.512 175.779C304.973 173.449 305.69 170.849 305.69 168.125H293.69ZM293.307 169.466C292.995 169.977 292.621 170.344 292.129 170.635L298.252 180.956C300.442 179.656 302.226 177.887 303.551 175.716L293.307 169.466ZM292.09 170.658C291.74 170.87 291.363 170.989 290.827 170.989V182.989C293.472 182.989 296.004 182.312 298.29 180.933L292.09 170.658Z" fill="#2464AB"/>
</svg>
